<?xml version="1.0" encoding="utf-8"?>
<!-- Generator: Adobe Illustrator 27.8.1, SVG Export Plug-In . SVG Version: 6.00 Build 0)  -->
<svg version="1.1" xmlns="http://www.w3.org/2000/svg" xmlns:xlink="http://www.w3.org/1999/xlink" x="0px" y="0px" width="820px"
	 height="439.525px" viewBox="0 0 820 439.525" style="enable-background:new 0 0 820 439.525;" xml:space="preserve">
<style type="text/css">
	.st0{fill:#FEFEFE;}
	.st1{fill:#318DDE;}
	.st2{fill:#1CD0BB;}
	.st3{fill:#80BC00;}
	.st4{fill:#FFA400;}
	.st5{fill:#FFFFFF;}
	.st6{display:none;}
	.st7{display:inline;fill:#318DDE;}
	.st8{display:inline;fill:#F540DA;}
	.st9{display:inline;fill:#80BC00;}
	.st10{display:inline;fill:#B800E3;}
	.st11{display:inline;fill:#00A9D7;}
	.st12{display:inline;fill:#FFA400;}
	.st13{display:inline;fill:#1CD0BB;}
	.st14{display:inline;fill:#FF414E;}
	.st15{display:inline;}
	.st16{fill:#F540DA;}
	.st17{fill:#B800E3;}
	.st18{fill:#00A9D7;}
	.st19{fill:#FF414E;}
	.st20{fill:none;stroke:#333333;stroke-width:4;stroke-miterlimit:10;}
	.st21{fill:#333333;}
	.st22{display:inline;fill:#F5F5F5;}
	.st23{display:inline;fill:#333333;}
	.st24{display:inline;fill:url(#Exclusion_12_00000079461701397885416590000013477731305318752923_);}
	.st25{display:inline;fill:url(#Exclusion_12_00000121978368430221530270000006616072826098553754_);}
	.st26{display:inline;opacity:0.3;fill:url(#Exclusion_12_00000027572875962445767690000006579407561561627046_);}
	
		.st27{display:inline;fill:none;stroke:url(#Exclusion_12_00000054247532201554948830000015630459301452126107_);stroke-width:7;stroke-miterlimit:10;}
</style>
<g id="Treemap">
	<g>
		<rect x="136.635" y="155.261" class="st1" width="156.792" height="104.743"/>
		<rect x="97.892" y="155.261" class="st1" width="35.742" height="104.743"/>
		<rect x="97.892" y="30.483" class="st1" width="195.534" height="43.963"/>
		<rect x="97.892" y="116.021" class="st1" width="195.534" height="36.24"/>
		<rect x="97.892" y="263.004" class="st1" width="195.534" height="146.479"/>
		<rect x="97.892" y="77.446" class="st1" width="144.816" height="35.575"/>
		<rect x="245.708" y="77.446" class="st1" width="47.718" height="35.575"/>
	</g>
	<g>
		<rect x="697.125" y="299.583" class="st2" width="47.704" height="72.819"/>
		<rect x="550.504" y="299.583" class="st2" width="143.621" height="72.819"/>
		<rect x="550.504" y="30.483" class="st2" width="194.325" height="93.179"/>
		<rect x="550.504" y="199.821" class="st2" width="194.325" height="96.762"/>
		<rect x="550.504" y="375.403" class="st2" width="194.325" height="34.08"/>
		<rect x="630.618" y="126.662" class="st2" width="114.212" height="70.159"/>
		<rect x="550.504" y="126.662" class="st2" width="77.113" height="70.159"/>
	</g>
	<g>
		<rect x="422.494" y="261.674" class="st3" width="123.159" height="73.484"/>
		<rect x="385.14" y="261.674" class="st3" width="34.354" height="73.484"/>
		<rect x="385.14" y="30.483" class="st3" width="160.513" height="134.414"/>
		<rect x="385.14" y="338.158" class="st3" width="132.121" height="71.325"/>
		<rect x="520.261" y="338.158" class="st3" width="25.391" height="71.325"/>
		<rect x="385.14" y="167.897" class="st3" width="160.513" height="90.777"/>
	</g>
	<g>
		<rect x="297.919" y="186.19" class="st4" width="82.498" height="129.352"/>
		<rect x="357.662" y="318.541" class="st4" width="22.755" height="50.872"/>
		<rect x="297.919" y="318.541" class="st4" width="56.743" height="50.872"/>
		<rect x="297.919" y="30.483" class="st4" width="82.498" height="43.634"/>
		<rect x="324.407" y="132.983" class="st4" width="56.01" height="50.207"/>
		<rect x="297.919" y="372.413" class="st4" width="82.498" height="37.07"/>
		<rect x="297.919" y="77.117" class="st4" width="82.498" height="52.867"/>
		<rect x="297.919" y="132.983" class="st4" width="23.488" height="50.207"/>
	</g>
</g>
<g id="Layer_4">
	<g>
		<g>
			<path class="st1" d="M151.446,20.142v-0.024c0-2.405,1.801-4.375,4.363-4.375c1.559,0,2.501,0.544,3.311,1.317l-0.955,1.1
				c-0.677-0.629-1.402-1.052-2.369-1.052c-1.607,0-2.792,1.33-2.792,2.985v0.024c0,1.655,1.172,2.997,2.792,2.997
				c1.04,0,1.704-0.411,2.429-1.088l0.955,0.967c-0.882,0.918-1.849,1.498-3.432,1.498C153.283,24.491,151.446,22.57,151.446,20.142
				z"/>
			<path class="st1" d="M163.732,15.827h1.377l3.722,8.52h-1.571l-0.858-2.042h-4l-0.87,2.042h-1.523L163.732,15.827z
				 M165.859,20.987l-1.462-3.384l-1.45,3.384H165.859z"/>
			<path class="st1" d="M171.269,17.265h-2.683v-1.377h6.864v1.377h-2.683v7.082h-1.499V17.265z"/>
			<path class="st1" d="M177.018,15.888h6.272v1.329h-4.786v2.199h4.242v1.329h-4.242v2.272h4.846v1.329h-6.332V15.888z"/>
			<path class="st1" d="M184.735,20.142v-0.024c0-2.369,1.813-4.375,4.363-4.375c1.474,0,2.381,0.411,3.251,1.148l-0.943,1.124
				c-0.652-0.557-1.293-0.907-2.369-0.907c-1.559,0-2.743,1.366-2.743,2.985v0.024c0,1.74,1.148,3.021,2.876,3.021
				c0.797,0,1.522-0.253,2.042-0.64v-1.583h-2.163v-1.294h3.602v3.554c-0.834,0.713-2.03,1.316-3.529,1.316
				C186.476,24.491,184.735,22.606,184.735,20.142z"/>
			<path class="st1" d="M194.205,20.142v-0.024c0-2.381,1.837-4.375,4.436-4.375c2.598,0,4.411,1.97,4.411,4.351v0.024
				c0,2.381-1.837,4.374-4.435,4.374S194.205,22.521,194.205,20.142z M201.492,20.142v-0.024c0-1.644-1.196-3.01-2.876-3.01
				s-2.852,1.342-2.852,2.985v0.024c0,1.644,1.196,2.997,2.876,2.997C200.32,23.114,201.492,21.784,201.492,20.142z"/>
			<path class="st1" d="M204.847,15.888h3.771c1.063,0,1.897,0.313,2.441,0.846c0.447,0.459,0.701,1.088,0.701,1.824v0.024
				c0,1.39-0.834,2.224-2.006,2.562l2.284,3.202h-1.765l-2.079-2.949h-1.861v2.949h-1.487V15.888z M208.509,20.081
				c1.063,0,1.74-0.557,1.74-1.414v-0.024c0-0.906-0.653-1.401-1.752-1.401h-2.163v2.84H208.509z"/>
			<path class="st1" d="M215.767,21.011l-3.36-5.123h1.765l2.356,3.733l2.393-3.733h1.704l-3.359,5.087v3.372h-1.499V21.011z"/>
			<path class="st1" d="M228.547,15.827h1.377l3.722,8.52h-1.571l-0.858-2.042h-4l-0.87,2.042h-1.523L228.547,15.827z
				 M230.674,20.987l-1.462-3.384l-1.45,3.384H230.674z"/>
		</g>
	</g>
	<g>
		<g>
			<path class="st5" d="M190.451,47.751h1.377l3.722,8.52h-1.571l-0.858-2.042h-4l-0.87,2.042h-1.523L190.451,47.751z
				 M192.578,52.911l-1.462-3.384l-1.45,3.384H192.578z"/>
			<path class="st5" d="M196.102,51.848h3.577v1.438h-3.577V51.848z"/>
			<path class="st5" d="M204.946,49.116h-4.254v-1.305h5.946v1.123l-3.807,7.336h-1.68L204.946,49.116z"/>
		</g>
	</g>
	<g>
		<g>
			<path class="st5" d="M638.22,69.759h3.153c2.659,0,4.496,1.824,4.496,4.205v0.024c0,2.381-1.837,4.229-4.496,4.229h-3.153V69.759
				z M639.706,71.113v5.752h1.667c1.777,0,2.938-1.196,2.938-2.852v-0.024c0-1.656-1.16-2.876-2.938-2.876H639.706z"/>
			<path class="st5" d="M647.254,73.795h3.577v1.438h-3.577V73.795z"/>
			<path class="st5" d="M656.098,71.064h-4.254v-1.305h5.946v1.123l-3.807,7.336h-1.68L656.098,71.064z"/>
		</g>
	</g>
	<g>
		<g>
			<path class="st5" d="M452.645,97.956v-0.024c0-2.405,1.801-4.375,4.362-4.375c1.56,0,2.502,0.544,3.312,1.317l-0.955,1.1
				c-0.677-0.629-1.401-1.052-2.368-1.052c-1.607,0-2.792,1.33-2.792,2.985v0.024c0,1.655,1.173,2.997,2.792,2.997
				c1.039,0,1.704-0.411,2.429-1.088l0.955,0.967c-0.882,0.918-1.849,1.498-3.433,1.498
				C454.481,102.306,452.645,100.385,452.645,97.956z"/>
			<path class="st5" d="M461.401,97.738h3.577v1.438h-3.577V97.738z"/>
			<path class="st5" d="M467.369,101.412c-0.641-0.641-1.027-1.522-1.027-3.227v-0.024c0-2.586,1.232-4.604,3.625-4.604
				c1.1,0,1.85,0.351,2.586,0.942l-0.797,1.148c-0.593-0.459-1.088-0.737-1.837-0.737c-1.475,0-2.007,1.535-2.03,2.695
				c0.495-0.521,1.124-0.858,2.03-0.858c1.631,0,2.948,0.967,2.948,2.658v0.024c0,1.68-1.365,2.876-3.142,2.876
				C468.686,102.306,467.937,101.979,467.369,101.412z M471.381,99.49v-0.024c0-0.846-0.677-1.474-1.729-1.474
				c-1.051,0-1.716,0.677-1.716,1.486v0.024c0,0.857,0.701,1.51,1.753,1.51C470.74,101.013,471.381,100.36,471.381,99.49z"/>
		</g>
	</g>
	<g>
		<g>
			<path class="st5" d="M329.666,47.812h3.794c0.967,0,1.728,0.266,2.211,0.749c0.375,0.374,0.568,0.834,0.568,1.401v0.024
				c0,1.015-0.58,1.559-1.209,1.886c0.991,0.338,1.68,0.906,1.68,2.054v0.024c0,1.511-1.245,2.32-3.13,2.32h-3.915V47.812z
				 M334.753,50.204c0-0.665-0.532-1.076-1.486-1.076h-2.139v2.248h2.03c0.955,0,1.595-0.375,1.595-1.148V50.204z M333.484,52.633
				h-2.356v2.32h2.465c1.015,0,1.631-0.398,1.631-1.16v-0.024C335.224,53.056,334.656,52.633,333.484,52.633z"/>
			<path class="st5" d="M337.975,51.848h3.577v1.438h-3.577V51.848z"/>
			<path class="st5" d="M342.807,53.962v-0.023c0-1.016,0.568-1.656,1.523-2.055c-0.713-0.375-1.233-0.942-1.233-1.886v-0.023
				c0-1.294,1.245-2.284,2.937-2.284s2.937,0.979,2.937,2.284v0.023c0,0.943-0.52,1.511-1.233,1.886
				c0.931,0.423,1.523,1.027,1.523,2.03v0.024c0,1.51-1.378,2.453-3.227,2.453S342.807,55.425,342.807,53.962z M347.81,53.878
				v-0.024c0-0.773-0.773-1.281-1.777-1.281c-1.003,0-1.764,0.508-1.764,1.281v0.024c0,0.688,0.652,1.269,1.764,1.269
				S347.81,54.579,347.81,53.878z M347.544,50.144v-0.024c0-0.652-0.604-1.185-1.511-1.185c-0.906,0-1.51,0.532-1.51,1.173v0.024
				c0,0.736,0.64,1.256,1.51,1.256S347.544,50.868,347.544,50.144z"/>
		</g>
	</g>
	<g>
		<g>
			<path class="st5" d="M329.666,98.358h3.794c0.967,0,1.728,0.266,2.211,0.749c0.375,0.374,0.568,0.834,0.568,1.401v0.024
				c0,1.015-0.58,1.559-1.209,1.886c0.991,0.338,1.68,0.906,1.68,2.054v0.024c0,1.511-1.245,2.32-3.13,2.32h-3.915V98.358z
				 M334.753,100.75c0-0.665-0.532-1.076-1.486-1.076h-2.139v2.248h2.03c0.955,0,1.595-0.375,1.595-1.148V100.75z M333.484,103.179
				h-2.356v2.32h2.465c1.015,0,1.631-0.398,1.631-1.16v-0.024C335.224,103.602,334.656,103.179,333.484,103.179z"/>
			<path class="st5" d="M337.975,102.394h3.577v1.438h-3.577V102.394z"/>
			<path class="st5" d="M346.819,99.663h-4.254v-1.305h5.946v1.123l-3.807,7.336h-1.68L346.819,99.663z"/>
		</g>
	</g>
	<g>
		<g>
			<path class="st5" d="M344.297,154.89h3.794c0.967,0,1.728,0.266,2.211,0.749c0.375,0.374,0.568,0.834,0.568,1.401v0.024
				c0,1.015-0.58,1.559-1.209,1.886c0.991,0.338,1.68,0.906,1.68,2.054v0.024c0,1.511-1.245,2.32-3.13,2.32h-3.915V154.89z
				 M349.385,157.282c0-0.665-0.532-1.076-1.486-1.076h-2.139v2.248h2.03c0.955,0,1.595-0.375,1.595-1.148V157.282z
				 M348.116,159.711h-2.356v2.32h2.465c1.015,0,1.631-0.398,1.631-1.16v-0.024C349.856,160.134,349.288,159.711,348.116,159.711z"
				/>
			<path class="st5" d="M352.607,158.926h3.577v1.438h-3.577V158.926z"/>
			<path class="st5" d="M358.575,162.6c-0.641-0.641-1.027-1.522-1.027-3.227v-0.024c0-2.586,1.232-4.604,3.625-4.604
				c1.1,0,1.849,0.351,2.586,0.942l-0.797,1.148c-0.592-0.459-1.088-0.737-1.837-0.737c-1.475,0-2.006,1.535-2.03,2.695
				c0.495-0.521,1.124-0.858,2.03-0.858c1.631,0,2.949,0.967,2.949,2.658v0.024c0,1.68-1.366,2.876-3.142,2.876
				C359.892,163.493,359.143,163.167,358.575,162.6z M362.586,160.678v-0.024c0-0.846-0.677-1.474-1.728-1.474
				s-1.716,0.677-1.716,1.486v0.024c0,0.857,0.701,1.51,1.752,1.51C361.946,162.2,362.586,161.548,362.586,160.678z"/>
		</g>
	</g>
	<g>
		<g>
			<path class="st5" d="M300.066,154.89h3.794c0.967,0,1.728,0.266,2.211,0.749c0.375,0.374,0.568,0.834,0.568,1.401v0.024
				c0,1.015-0.58,1.559-1.209,1.886c0.991,0.338,1.68,0.906,1.68,2.054v0.024c0,1.511-1.245,2.32-3.13,2.32h-3.915V154.89z
				 M305.154,157.282c0-0.665-0.532-1.076-1.486-1.076h-2.139v2.248h2.03c0.955,0,1.595-0.375,1.595-1.148V157.282z
				 M303.885,159.711h-2.356v2.32h2.465c1.015,0,1.631-0.398,1.631-1.16v-0.024C305.625,160.134,305.057,159.711,303.885,159.711z"
				/>
			<path class="st5" d="M308.376,158.926h3.577v1.438h-3.577V158.926z"/>
			<path class="st5" d="M313.195,162.2l0.918-1.075c0.677,0.628,1.39,1.015,2.175,1.015c1.015,0,1.68-0.58,1.68-1.462v-0.024
				c0-0.857-0.725-1.401-1.752-1.401c-0.604,0-1.124,0.169-1.559,0.374l-0.894-0.592l0.241-4.145h5.064v1.316h-3.783l-0.133,1.982
				c0.398-0.146,0.773-0.242,1.341-0.242c1.644,0,2.949,0.87,2.949,2.659v0.024c0,1.728-1.269,2.863-3.142,2.863
				C315.008,163.493,313.993,162.974,313.195,162.2z"/>
		</g>
	</g>
	<g>
		<g>
			<path class="st5" d="M317.694,341.113h3.794c0.967,0,1.728,0.266,2.211,0.749c0.375,0.374,0.568,0.834,0.568,1.401v0.024
				c0,1.015-0.58,1.559-1.209,1.886c0.991,0.338,1.68,0.906,1.68,2.054v0.024c0,1.511-1.245,2.32-3.13,2.32h-3.915V341.113z
				 M322.781,343.505c0-0.665-0.532-1.076-1.486-1.076h-2.139v2.248h2.03c0.955,0,1.595-0.375,1.595-1.148V343.505z
				 M321.512,345.934h-2.356v2.32h2.465c1.015,0,1.631-0.398,1.631-1.16v-0.024C323.252,346.357,322.685,345.934,321.512,345.934z"
				/>
			<path class="st5" d="M326.003,345.149h3.577v1.438h-3.577V345.149z"/>
			<path class="st5" d="M330.847,348.4l2.912-2.478c1.16-0.991,1.583-1.522,1.583-2.284c0-0.834-0.592-1.317-1.366-1.317
				s-1.305,0.423-1.946,1.269l-1.063-0.834c0.81-1.123,1.607-1.764,3.118-1.764c1.656,0,2.792,1.015,2.792,2.525v0.024
				c0,1.329-0.701,2.055-2.199,3.274l-1.74,1.451h4.024v1.305h-6.115V348.4z"/>
		</g>
	</g>
	<g>
		<g>
			<path class="st5" d="M358.929,341.113h3.794c0.967,0,1.728,0.266,2.211,0.749c0.375,0.374,0.568,0.834,0.568,1.401v0.024
				c0,1.015-0.58,1.559-1.209,1.886c0.991,0.338,1.68,0.906,1.68,2.054v0.024c0,1.511-1.245,2.32-3.13,2.32h-3.915V341.113z
				 M364.017,343.505c0-0.665-0.532-1.076-1.486-1.076h-2.139v2.248h2.03c0.955,0,1.595-0.375,1.595-1.148V343.505z
				 M362.748,345.934h-2.356v2.32h2.465c1.015,0,1.631-0.398,1.631-1.16v-0.024C364.488,346.357,363.92,345.934,362.748,345.934z"/>
			<path class="st5" d="M367.239,345.149h3.577v1.438h-3.577V345.149z"/>
			<path class="st5" d="M371.889,348.23l1.04-0.967c0.604,0.713,1.281,1.112,2.224,1.112c0.834,0,1.462-0.508,1.462-1.281v-0.024
				c0-0.834-0.761-1.305-1.945-1.305h-0.689l-0.242-0.931l2.284-2.429h-3.662v-1.293h5.596v1.111l-2.356,2.417
				c1.281,0.157,2.489,0.81,2.489,2.368v0.024c0,1.56-1.196,2.683-2.961,2.683C373.653,349.716,372.602,349.1,371.889,348.23z"/>
		</g>
	</g>
	<g>
		<g>
			<path class="st5" d="M329.666,247.336h3.794c0.967,0,1.728,0.266,2.211,0.749c0.375,0.374,0.568,0.834,0.568,1.401v0.024
				c0,1.015-0.58,1.559-1.209,1.886c0.991,0.338,1.68,0.906,1.68,2.054v0.024c0,1.511-1.245,2.32-3.13,2.32h-3.915V247.336z
				 M334.753,249.729c0-0.665-0.532-1.076-1.486-1.076h-2.139v2.248h2.03c0.955,0,1.595-0.375,1.595-1.148V249.729z
				 M333.484,252.157h-2.356v2.32h2.465c1.015,0,1.631-0.398,1.631-1.16v-0.024C335.224,252.58,334.656,252.157,333.484,252.157z"/>
			<path class="st5" d="M337.975,251.372h3.577v1.438h-3.577V251.372z"/>
			<path class="st5" d="M347.206,253.897h-4.266l-0.278-1.063l4.701-5.559h1.269v5.401h1.209v1.221h-1.209v1.897h-1.426V253.897z
				 M347.206,252.677v-3.348l-2.779,3.348H347.206z"/>
		</g>
	</g>
	<g>
		<g>
			<path class="st5" d="M329.666,386.338h3.794c0.967,0,1.728,0.266,2.211,0.749c0.375,0.374,0.568,0.834,0.568,1.401v0.024
				c0,1.015-0.58,1.559-1.209,1.886c0.991,0.338,1.68,0.906,1.68,2.054v0.024c0,1.511-1.245,2.32-3.13,2.32h-3.915V386.338z
				 M334.753,388.731c0-0.665-0.532-1.076-1.486-1.076h-2.139v2.248h2.03c0.955,0,1.595-0.375,1.595-1.148V388.731z M333.484,391.16
				h-2.356v2.32h2.465c1.015,0,1.631-0.398,1.631-1.16v-0.024C335.224,391.583,334.656,391.16,333.484,391.16z"/>
			<path class="st5" d="M337.975,390.375h3.577v1.438h-3.577V390.375z"/>
			<path class="st5" d="M344.015,387.788l-1.522,0.424l-0.314-1.209l2.284-0.725h1.027v8.52h-1.475V387.788z"/>
		</g>
	</g>
	<g>
		<g>
			<path class="st5" d="M452.645,211.685v-0.024c0-2.405,1.801-4.375,4.362-4.375c1.56,0,2.502,0.544,3.312,1.317l-0.955,1.1
				c-0.677-0.629-1.401-1.052-2.368-1.052c-1.607,0-2.792,1.33-2.792,2.985v0.024c0,1.655,1.173,2.997,2.792,2.997
				c1.039,0,1.704-0.411,2.429-1.088l0.955,0.967c-0.882,0.918-1.849,1.498-3.433,1.498
				C454.481,216.035,452.645,214.114,452.645,211.685z"/>
			<path class="st5" d="M461.401,211.467h3.577v1.438h-3.577V211.467z"/>
			<path class="st5" d="M466.221,214.742l0.918-1.075c0.677,0.628,1.391,1.015,2.176,1.015c1.015,0,1.68-0.58,1.68-1.462v-0.024
				c0-0.857-0.725-1.401-1.752-1.401c-0.604,0-1.124,0.169-1.56,0.374l-0.894-0.592l0.241-4.145h5.063v1.316h-3.782l-0.133,1.982
				c0.398-0.146,0.773-0.242,1.341-0.242c1.644,0,2.949,0.87,2.949,2.659v0.024c0,1.728-1.27,2.863-3.143,2.863
				C468.033,216.035,467.019,215.515,466.221,214.742z"/>
		</g>
	</g>
	<g>
		<g>
			<path class="st5" d="M440.021,376.625v-0.024c0-2.405,1.801-4.375,4.362-4.375c1.56,0,2.502,0.544,3.312,1.317l-0.955,1.1
				c-0.677-0.629-1.401-1.052-2.368-1.052c-1.607,0-2.792,1.33-2.792,2.985v0.024c0,1.655,1.173,2.997,2.792,2.997
				c1.039,0,1.704-0.411,2.429-1.088l0.955,0.967c-0.882,0.918-1.849,1.498-3.433,1.498
				C441.857,380.975,440.021,379.054,440.021,376.625z"/>
			<path class="st5" d="M448.777,376.408h3.577v1.438h-3.577V376.408z"/>
			<path class="st5" d="M454.817,373.821l-1.522,0.424l-0.314-1.209l2.284-0.725h1.027v8.52h-1.475V373.821z"/>
		</g>
	</g>
	<g>
		<g>
			<path class="st5" d="M523.82,376.625v-0.024c0-2.405,1.801-4.375,4.363-4.375c1.559,0,2.501,0.544,3.311,1.317l-0.954,1.1
				c-0.677-0.629-1.402-1.052-2.369-1.052c-1.607,0-2.791,1.33-2.791,2.985v0.024c0,1.655,1.172,2.997,2.791,2.997
				c1.04,0,1.704-0.411,2.43-1.088l0.954,0.967c-0.882,0.918-1.849,1.498-3.432,1.498
				C525.657,380.975,523.82,379.054,523.82,376.625z"/>
			<path class="st5" d="M532.578,376.408h3.577v1.438h-3.577V376.408z"/>
			<path class="st5" d="M537.421,379.659l2.912-2.478c1.16-0.991,1.584-1.522,1.584-2.284c0-0.834-0.593-1.317-1.366-1.317
				s-1.305,0.423-1.945,1.269l-1.063-0.834c0.81-1.123,1.607-1.764,3.118-1.764c1.655,0,2.791,1.015,2.791,2.525v0.024
				c0,1.329-0.701,2.055-2.199,3.274l-1.74,1.451h4.024v1.305h-6.115V379.659z"/>
		</g>
	</g>
	<g>
		<g>
			<path class="st5" d="M473.274,298.146v-0.024c0-2.405,1.801-4.375,4.363-4.375c1.559,0,2.501,0.544,3.311,1.317l-0.954,1.1
				c-0.677-0.629-1.402-1.052-2.369-1.052c-1.607,0-2.791,1.33-2.791,2.985v0.024c0,1.655,1.172,2.997,2.791,2.997
				c1.04,0,1.704-0.411,2.43-1.088l0.954,0.967c-0.882,0.918-1.849,1.498-3.432,1.498
				C475.111,302.495,473.274,300.574,473.274,298.146z"/>
			<path class="st5" d="M482.032,297.928h3.577v1.438h-3.577V297.928z"/>
			<path class="st5" d="M491.262,300.453h-4.266l-0.278-1.063l4.701-5.559h1.269v5.401h1.209v1.221h-1.209v1.897h-1.426V300.453z
				 M491.262,299.232v-3.348l-2.779,3.348H491.262z"/>
		</g>
	</g>
	<g>
		<g>
			<path class="st5" d="M394.13,298.146v-0.024c0-2.405,1.801-4.375,4.363-4.375c1.559,0,2.501,0.544,3.311,1.317l-0.955,1.1
				c-0.677-0.629-1.402-1.052-2.369-1.052c-1.607,0-2.792,1.33-2.792,2.985v0.024c0,1.655,1.172,2.997,2.792,2.997
				c1.04,0,1.704-0.411,2.429-1.088l0.955,0.967c-0.882,0.918-1.849,1.498-3.432,1.498
				C395.967,302.495,394.13,300.574,394.13,298.146z"/>
			<path class="st5" d="M402.887,297.928h3.577v1.438h-3.577V297.928z"/>
			<path class="st5" d="M407.537,301.009l1.04-0.967c0.604,0.713,1.281,1.112,2.224,1.112c0.833,0,1.462-0.508,1.462-1.281v-0.024
				c0-0.834-0.762-1.305-1.946-1.305h-0.689l-0.242-0.931l2.284-2.429h-3.661v-1.293h5.595v1.111l-2.356,2.417
				c1.281,0.157,2.489,0.81,2.489,2.368v0.024c0,1.56-1.196,2.683-2.96,2.683C409.302,302.495,408.25,301.879,407.537,301.009z"/>
		</g>
	</g>
	<g>
		<g>
			<path class="st5" d="M579.015,156.885h3.153c2.659,0,4.496,1.824,4.496,4.205v0.024c0,2.381-1.837,4.229-4.496,4.229h-3.153
				V156.885z M580.501,158.238v5.752h1.667c1.777,0,2.938-1.196,2.938-2.852v-0.024c0-1.656-1.16-2.876-2.938-2.876H580.501z"/>
			<path class="st5" d="M588.049,160.921h3.577v1.438h-3.577V160.921z"/>
			<path class="st5" d="M592.868,164.195l0.918-1.075c0.677,0.628,1.391,1.015,2.176,1.015c1.015,0,1.68-0.58,1.68-1.462v-0.024
				c0-0.857-0.725-1.401-1.752-1.401c-0.604,0-1.124,0.169-1.56,0.374l-0.894-0.592l0.241-4.145h5.063v1.316h-3.782l-0.133,1.982
				c0.398-0.146,0.773-0.242,1.341-0.242c1.644,0,2.949,0.87,2.949,2.659v0.024c0,1.728-1.27,2.863-3.143,2.863
				C594.681,165.488,593.666,164.969,592.868,164.195z"/>
		</g>
	</g>
	<g>
		<g>
			<path class="st5" d="M681.438,156.885h3.153c2.659,0,4.496,1.824,4.496,4.205v0.024c0,2.381-1.837,4.229-4.496,4.229h-3.153
				V156.885z M682.924,158.238v5.752h1.667c1.777,0,2.938-1.196,2.938-2.852v-0.024c0-1.656-1.16-2.876-2.938-2.876H682.924z"/>
			<path class="st5" d="M690.472,160.921h3.577v1.438h-3.577V160.921z"/>
			<path class="st5" d="M699.315,158.189h-4.254v-1.305h5.946v1.123l-3.807,7.336h-1.68L699.315,158.189z"/>
		</g>
	</g>
	<g>
		<g>
			<path class="st5" d="M611.604,335.127h3.154c2.658,0,4.495,1.824,4.495,4.205v0.024c0,2.381-1.837,4.229-4.495,4.229h-3.154
				V335.127z M613.09,336.48v5.752h1.668c1.776,0,2.937-1.196,2.937-2.852v-0.024c0-1.656-1.16-2.876-2.937-2.876H613.09z"/>
			<path class="st5" d="M620.639,339.163h3.576v1.438h-3.576V339.163z"/>
			<path class="st5" d="M625.481,342.414l2.912-2.478c1.16-0.991,1.583-1.522,1.583-2.284c0-0.834-0.592-1.317-1.365-1.317
				s-1.305,0.423-1.945,1.269l-1.064-0.834c0.811-1.123,1.607-1.764,3.119-1.764c1.655,0,2.791,1.015,2.791,2.525v0.024
				c0,1.329-0.701,2.055-2.199,3.274l-1.74,1.451h4.023v1.305h-6.114V342.414z"/>
		</g>
	</g>
	<g>
		<g>
			<path class="st5" d="M711.366,335.127h3.153c2.659,0,4.496,1.824,4.496,4.205v0.024c0,2.381-1.837,4.229-4.496,4.229h-3.153
				V335.127z M712.853,336.48v5.752h1.667c1.777,0,2.938-1.196,2.938-2.852v-0.024c0-1.656-1.16-2.876-2.938-2.876H712.853z"/>
			<path class="st5" d="M720.4,339.163h3.577v1.438H720.4V339.163z"/>
			<path class="st5" d="M725.051,342.244l1.039-0.967c0.604,0.713,1.281,1.112,2.224,1.112c0.834,0,1.463-0.508,1.463-1.281v-0.024
				c0-0.834-0.762-1.305-1.946-1.305h-0.688l-0.242-0.931l2.284-2.429h-3.661v-1.293h5.595v1.111l-2.356,2.417
				c1.281,0.157,2.489,0.81,2.489,2.368v0.024c0,1.56-1.196,2.683-2.961,2.683C726.815,343.73,725.764,343.114,725.051,342.244z"/>
		</g>
	</g>
	<g>
		<g>
			<path class="st5" d="M638.22,243.346h3.153c2.659,0,4.496,1.824,4.496,4.205v0.024c0,2.381-1.837,4.229-4.496,4.229h-3.153
				V243.346z M639.706,244.699v5.752h1.667c1.777,0,2.938-1.196,2.938-2.852v-0.024c0-1.656-1.16-2.876-2.938-2.876H639.706z"/>
			<path class="st5" d="M647.254,247.382h3.577v1.438h-3.577V247.382z"/>
			<path class="st5" d="M656.484,249.907h-4.267l-0.277-1.063l4.701-5.559h1.269v5.401h1.209v1.221h-1.209v1.897h-1.426V249.907z
				 M656.484,248.687v-3.348l-2.779,3.348H656.484z"/>
		</g>
	</g>
	<g>
		<g>
			<path class="st5" d="M634.217,388.333h3.153c2.659,0,4.495,1.824,4.495,4.205v0.024c0,2.381-1.836,4.229-4.495,4.229h-3.153
				V388.333z M635.703,389.687v5.752h1.667c1.776,0,2.937-1.196,2.937-2.852v-0.024c0-1.656-1.16-2.876-2.937-2.876H635.703z"/>
			<path class="st5" d="M643.251,392.37h3.577v1.438h-3.577V392.37z"/>
			<path class="st5" d="M649.291,389.783l-1.523,0.424l-0.314-1.209l2.285-0.725h1.027v8.52h-1.475V389.783z"/>
		</g>
	</g>
	<g>
		<g>
			<path class="st5" d="M164.823,90.981h1.377l3.722,8.52h-1.571l-0.858-2.042h-4l-0.87,2.042h-1.523L164.823,90.981z
				 M166.95,96.142l-1.462-3.384l-1.45,3.384H166.95z"/>
			<path class="st5" d="M170.474,95.078h3.577v1.438h-3.577V95.078z"/>
			<path class="st5" d="M175.293,98.353l0.918-1.075c0.677,0.628,1.39,1.015,2.175,1.015c1.015,0,1.68-0.58,1.68-1.462v-0.024
				c0-0.857-0.726-1.401-1.752-1.401c-0.604,0-1.124,0.169-1.559,0.374l-0.895-0.592l0.242-4.145h5.063v1.316h-3.783l-0.133,1.982
				c0.399-0.146,0.773-0.242,1.341-0.242c1.644,0,2.949,0.87,2.949,2.659v0.024c0,1.728-1.269,2.863-3.142,2.863
				C177.106,99.646,176.091,99.126,175.293,98.353z"/>
		</g>
	</g>
	<g>
		<g>
			<path class="st5" d="M262.59,90.981h1.377l3.722,8.52h-1.571l-0.858-2.042h-4l-0.87,2.042h-1.523L262.59,90.981z M264.717,96.142
				l-1.462-3.384l-1.45,3.384H264.717z"/>
			<path class="st5" d="M268.241,95.078h3.577v1.438h-3.577V95.078z"/>
			<path class="st5" d="M274.208,98.752c-0.64-0.641-1.027-1.522-1.027-3.227v-0.024c0-2.586,1.232-4.604,3.625-4.604
				c1.1,0,1.849,0.351,2.586,0.942l-0.797,1.148c-0.592-0.459-1.088-0.737-1.837-0.737c-1.475,0-2.006,1.535-2.03,2.695
				c0.496-0.521,1.124-0.858,2.03-0.858c1.631,0,2.949,0.967,2.949,2.658v0.024c0,1.68-1.366,2.876-3.142,2.876
				C275.526,99.646,274.777,99.319,274.208,98.752z M278.221,96.83v-0.024c0-0.846-0.677-1.474-1.729-1.474
				c-1.051,0-1.716,0.677-1.716,1.486v0.024c0,0.857,0.701,1.51,1.752,1.51C277.581,98.353,278.221,97.7,278.221,96.83z"/>
		</g>
	</g>
	<g>
		<g>
			<path class="st5" d="M190.452,129.556h1.377l3.722,8.52h-1.571l-0.858-2.042h-4l-0.87,2.042h-1.523L190.452,129.556z
				 M192.579,134.716l-1.462-3.384l-1.45,3.384H192.579z"/>
			<path class="st5" d="M196.103,133.653h3.577v1.438h-3.577V133.653z"/>
			<path class="st5" d="M205.333,136.178h-4.266l-0.278-1.063l4.701-5.559h1.269v5.401h1.208v1.221h-1.208v1.897h-1.426V136.178z
				 M205.333,134.958v-3.348l-2.78,3.348H205.333z"/>
		</g>
	</g>
	<g>
		<g>
			<path class="st5" d="M109.622,203.38h1.377l3.722,8.52h-1.571l-0.858-2.042h-4l-0.87,2.042h-1.523L109.622,203.38z
				 M111.749,208.54l-1.462-3.384l-1.45,3.384H111.749z"/>
			<path class="st5" d="M115.272,207.477h3.577v1.438h-3.577V207.477z"/>
			<path class="st5" d="M120.116,210.728l2.913-2.478c1.16-0.991,1.583-1.522,1.583-2.284c0-0.834-0.592-1.317-1.366-1.317
				s-1.305,0.423-1.946,1.269l-1.063-0.834c0.81-1.123,1.607-1.764,3.118-1.764c1.655,0,2.792,1.015,2.792,2.525v0.024
				c0,1.329-0.701,2.055-2.2,3.274l-1.74,1.451h4.024v1.305h-6.115V210.728z"/>
		</g>
	</g>
	<g>
		<g>
			<path class="st5" d="M204.729,203.38h1.377l3.722,8.52h-1.571l-0.858-2.042h-4l-0.87,2.042h-1.523L204.729,203.38z
				 M206.855,208.54l-1.462-3.384l-1.45,3.384H206.855z"/>
			<path class="st5" d="M210.379,207.477h3.577v1.438h-3.577V207.477z"/>
			<path class="st5" d="M215.029,210.558l1.04-0.967c0.604,0.713,1.281,1.112,2.224,1.112c0.833,0,1.462-0.508,1.462-1.281v-0.024
				c0-0.834-0.762-1.305-1.946-1.305h-0.689l-0.242-0.931l2.284-2.429h-3.662v-1.293h5.595v1.111l-2.357,2.417
				c1.281,0.157,2.49,0.81,2.49,2.368v0.024c0,1.56-1.196,2.683-2.961,2.683C216.794,212.044,215.742,211.428,215.029,210.558z"/>
		</g>
	</g>
	<g>
		<g>
			<path class="st5" d="M190.451,335.731h1.377l3.722,8.52h-1.571l-0.858-2.042h-4l-0.87,2.042h-1.523L190.451,335.731z
				 M192.578,340.892l-1.462-3.384l-1.45,3.384H192.578z"/>
			<path class="st5" d="M196.102,339.828h3.577v1.438h-3.577V339.828z"/>
			<path class="st5" d="M202.143,337.241l-1.523,0.424l-0.314-1.209l2.284-0.725h1.027v8.52h-1.474V337.241z"/>
		</g>
	</g>
	<g>
		<g>
			<path class="st4" d="M299.124,20.142v-0.024c0-2.405,1.801-4.375,4.363-4.375c1.559,0,2.501,0.544,3.311,1.317l-0.955,1.1
				c-0.677-0.629-1.402-1.052-2.369-1.052c-1.607,0-2.792,1.33-2.792,2.985v0.024c0,1.655,1.172,2.997,2.792,2.997
				c1.04,0,1.704-0.411,2.429-1.088l0.955,0.967c-0.882,0.918-1.849,1.498-3.432,1.498C300.96,24.491,299.124,22.57,299.124,20.142z
				"/>
			<path class="st4" d="M311.41,15.827h1.377l3.722,8.52h-1.571l-0.858-2.042h-4l-0.87,2.042h-1.523L311.41,15.827z M313.537,20.987
				l-1.462-3.384l-1.45,3.384H313.537z"/>
			<path class="st4" d="M318.946,17.265h-2.683v-1.377h6.864v1.377h-2.683v7.082h-1.499V17.265z"/>
			<path class="st4" d="M324.695,15.888h6.272v1.329h-4.786v2.199h4.242v1.329h-4.242v2.272h4.846v1.329h-6.332V15.888z"/>
			<path class="st4" d="M332.413,20.142v-0.024c0-2.369,1.813-4.375,4.363-4.375c1.474,0,2.381,0.411,3.251,1.148l-0.943,1.124
				c-0.652-0.557-1.293-0.907-2.369-0.907c-1.559,0-2.743,1.366-2.743,2.985v0.024c0,1.74,1.148,3.021,2.876,3.021
				c0.797,0,1.522-0.253,2.042-0.64v-1.583h-2.163v-1.294h3.602v3.554c-0.834,0.713-2.03,1.316-3.529,1.316
				C334.153,24.491,332.413,22.606,332.413,20.142z"/>
			<path class="st4" d="M341.882,20.142v-0.024c0-2.381,1.837-4.375,4.436-4.375c2.598,0,4.411,1.97,4.411,4.351v0.024
				c0,2.381-1.837,4.374-4.435,4.374S341.882,22.521,341.882,20.142z M349.169,20.142v-0.024c0-1.644-1.196-3.01-2.876-3.01
				s-2.852,1.342-2.852,2.985v0.024c0,1.644,1.196,2.997,2.876,2.997C347.998,23.114,349.169,21.784,349.169,20.142z"/>
			<path class="st4" d="M352.524,15.888h3.771c1.063,0,1.897,0.313,2.441,0.846c0.447,0.459,0.701,1.088,0.701,1.824v0.024
				c0,1.39-0.834,2.224-2.006,2.562l2.284,3.202h-1.765l-2.079-2.949h-1.861v2.949h-1.487V15.888z M356.186,20.081
				c1.063,0,1.74-0.557,1.74-1.414v-0.024c0-0.906-0.653-1.401-1.752-1.401h-2.163v2.84H356.186z"/>
			<path class="st4" d="M363.444,21.011l-3.36-5.123h1.765l2.356,3.733l2.393-3.733h1.704l-3.359,5.087v3.372h-1.499V21.011z"/>
			<path class="st4" d="M373.227,15.888h3.794c0.967,0,1.728,0.266,2.211,0.749c0.375,0.374,0.568,0.834,0.568,1.401v0.024
				c0,1.015-0.58,1.559-1.209,1.886c0.991,0.338,1.68,0.906,1.68,2.054v0.024c0,1.511-1.245,2.32-3.13,2.32h-3.915V15.888z
				 M378.314,18.28c0-0.665-0.532-1.076-1.486-1.076h-2.139v2.248h2.03c0.955,0,1.595-0.375,1.595-1.148V18.28z M377.045,20.709
				h-2.356v2.32h2.465c1.015,0,1.631-0.398,1.631-1.16v-0.024C378.786,21.132,378.218,20.709,377.045,20.709z"/>
		</g>
	</g>
	<g>
		<g>
			<path class="st3" d="M425.797,20.142v-0.024c0-2.405,1.801-4.375,4.363-4.375c1.559,0,2.501,0.544,3.311,1.317l-0.954,1.1
				c-0.677-0.629-1.402-1.052-2.369-1.052c-1.607,0-2.791,1.33-2.791,2.985v0.024c0,1.655,1.172,2.997,2.791,2.997
				c1.04,0,1.704-0.411,2.43-1.088l0.954,0.967c-0.882,0.918-1.849,1.498-3.432,1.498C427.634,24.491,425.797,22.57,425.797,20.142z
				"/>
			<path class="st3" d="M438.083,15.827h1.378l3.722,8.52h-1.571l-0.857-2.042h-4l-0.87,2.042h-1.523L438.083,15.827z
				 M440.21,20.987l-1.462-3.384l-1.45,3.384H440.21z"/>
			<path class="st3" d="M445.619,17.265h-2.683v-1.377h6.864v1.377h-2.683v7.082h-1.499V17.265z"/>
			<path class="st3" d="M451.368,15.888h6.272v1.329h-4.786v2.199h4.242v1.329h-4.242v2.272h4.846v1.329h-6.332V15.888z"/>
			<path class="st3" d="M459.086,20.142v-0.024c0-2.369,1.813-4.375,4.363-4.375c1.474,0,2.381,0.411,3.251,1.148l-0.943,1.124
				c-0.652-0.557-1.293-0.907-2.368-0.907c-1.56,0-2.743,1.366-2.743,2.985v0.024c0,1.74,1.147,3.021,2.876,3.021
				c0.798,0,1.522-0.253,2.042-0.64v-1.583H463.4v-1.294h3.602v3.554c-0.834,0.713-2.03,1.316-3.529,1.316
				C460.826,24.491,459.086,22.606,459.086,20.142z"/>
			<path class="st3" d="M468.556,20.142v-0.024c0-2.381,1.837-4.375,4.436-4.375s4.411,1.97,4.411,4.351v0.024
				c0,2.381-1.837,4.374-4.436,4.374C470.369,24.491,468.556,22.521,468.556,20.142z M475.843,20.142v-0.024
				c0-1.644-1.196-3.01-2.876-3.01s-2.852,1.342-2.852,2.985v0.024c0,1.644,1.196,2.997,2.876,2.997S475.843,21.784,475.843,20.142z
				"/>
			<path class="st3" d="M479.197,15.888h3.771c1.063,0,1.897,0.313,2.441,0.846c0.447,0.459,0.701,1.088,0.701,1.824v0.024
				c0,1.39-0.834,2.224-2.006,2.562l2.284,3.202h-1.765l-2.079-2.949h-1.86v2.949h-1.487V15.888z M482.859,20.081
				c1.063,0,1.74-0.557,1.74-1.414v-0.024c0-0.906-0.652-1.401-1.752-1.401h-2.163v2.84H482.859z"/>
			<path class="st3" d="M490.118,21.011l-3.36-5.123h1.765l2.356,3.733l2.394-3.733h1.703l-3.359,5.087v3.372h-1.498V21.011z"/>
			<path class="st3" d="M499.525,20.142v-0.024c0-2.405,1.801-4.375,4.363-4.375c1.559,0,2.501,0.544,3.311,1.317l-0.954,1.1
				c-0.677-0.629-1.402-1.052-2.369-1.052c-1.607,0-2.791,1.33-2.791,2.985v0.024c0,1.655,1.172,2.997,2.791,2.997
				c1.04,0,1.704-0.411,2.43-1.088l0.954,0.967c-0.882,0.918-1.849,1.498-3.432,1.498C501.362,24.491,499.525,22.57,499.525,20.142z
				"/>
		</g>
	</g>
	<g>
		<g>
			<path class="st2" d="M609.08,20.142v-0.024c0-2.405,1.801-4.375,4.363-4.375c1.559,0,2.501,0.544,3.311,1.317l-0.954,1.1
				c-0.677-0.629-1.402-1.052-2.369-1.052c-1.607,0-2.791,1.33-2.791,2.985v0.024c0,1.655,1.172,2.997,2.791,2.997
				c1.04,0,1.704-0.411,2.43-1.088l0.954,0.967c-0.882,0.918-1.849,1.498-3.432,1.498C610.917,24.491,609.08,22.57,609.08,20.142z"
				/>
			<path class="st2" d="M621.366,15.827h1.378l3.722,8.52h-1.571l-0.857-2.042h-4l-0.87,2.042h-1.523L621.366,15.827z
				 M623.493,20.987l-1.462-3.384l-1.45,3.384H623.493z"/>
			<path class="st2" d="M628.902,17.265h-2.683v-1.377h6.864v1.377h-2.683v7.082h-1.499V17.265z"/>
			<path class="st2" d="M634.651,15.888h6.272v1.329h-4.786v2.199h4.242v1.329h-4.242v2.272h4.846v1.329h-6.332V15.888z"/>
			<path class="st2" d="M642.369,20.142v-0.024c0-2.369,1.813-4.375,4.363-4.375c1.474,0,2.381,0.411,3.251,1.148l-0.943,1.124
				c-0.652-0.557-1.293-0.907-2.368-0.907c-1.56,0-2.743,1.366-2.743,2.985v0.024c0,1.74,1.147,3.021,2.876,3.021
				c0.798,0,1.522-0.253,2.042-0.64v-1.583h-2.163v-1.294h3.602v3.554c-0.834,0.713-2.03,1.316-3.529,1.316
				C644.109,24.491,642.369,22.606,642.369,20.142z"/>
			<path class="st2" d="M651.839,20.142v-0.024c0-2.381,1.837-4.375,4.436-4.375s4.411,1.97,4.411,4.351v0.024
				c0,2.381-1.837,4.374-4.436,4.374C653.652,24.491,651.839,22.521,651.839,20.142z M659.126,20.142v-0.024
				c0-1.644-1.196-3.01-2.876-3.01s-2.852,1.342-2.852,2.985v0.024c0,1.644,1.196,2.997,2.876,2.997S659.126,21.784,659.126,20.142z
				"/>
			<path class="st2" d="M662.48,15.888h3.771c1.063,0,1.897,0.313,2.441,0.846c0.447,0.459,0.701,1.088,0.701,1.824v0.024
				c0,1.39-0.834,2.224-2.006,2.562l2.284,3.202h-1.765l-2.079-2.949h-1.86v2.949h-1.487V15.888z M666.143,20.081
				c1.063,0,1.74-0.557,1.74-1.414v-0.024c0-0.906-0.652-1.401-1.752-1.401h-2.163v2.84H666.143z"/>
			<path class="st2" d="M673.401,21.011l-3.36-5.123h1.765l2.356,3.733l2.394-3.733h1.703l-3.359,5.087v3.372h-1.498V21.011z"/>
			<path class="st2" d="M683.184,15.888h3.154c2.658,0,4.495,1.824,4.495,4.205v0.024c0,2.381-1.837,4.229-4.495,4.229h-3.154
				V15.888z M684.67,17.241v5.752h1.668c1.776,0,2.937-1.196,2.937-2.852v-0.024c0-1.656-1.16-2.876-2.937-2.876H684.67z"/>
		</g>
	</g>
</g>
<g id="REF">
</g>
<g id="resources" class="st6">
</g>
</svg>
